<?xml version="1.0" standalone="no"?><!DOCTYPE svg PUBLIC "-//W3C//DTD SVG 1.1//EN" "http://www.w3.org/Graphics/SVG/1.1/DTD/svg11.dtd"><svg t="1735111931365" class="icon" viewBox="0 0 1032 1024" version="1.1" xmlns="http://www.w3.org/2000/svg" p-id="1574" xmlns:xlink="http://www.w3.org/1999/xlink" width="201.5625" height="200"><path d="M873.29801085 149.22066691c-199.539111-199.539111-523.0569114-199.53911029-722.5960217 0-199.54055562 199.54055562-199.53911029 523.0569114 0 722.5960217 199.54055562 199.54055562 523.05546608 199.54055562 722.5960217 0C1072.83712185 672.27757902 1072.83712185 348.75977791 873.29801085 149.22066691zM558.83722937 773.55663674c0 25.86893732-20.96973667 46.83867399-46.83867399 46.83867399-25.86893732 0-46.83867399-20.96973667-46.83867399-46.83867399l0-216.20072961-216.2007296 0c-25.86893732 0-46.83867399-20.96973667-46.83867399-46.83867399 0-25.86893732 20.96973667-46.83867399 46.83867399-46.83867399l216.2007296 0 0-216.2007296c0-25.86893732 20.96973667-46.83867399 46.83867399-46.83867399 25.86893732 0 46.83867399 20.96973667 46.83867399 46.83867399l0 216.2007296 216.2007296 0c25.86893732 0 46.83867399 20.96973667 46.83867399 46.83867399 0 25.86893732-20.96973667 46.83867399-46.83867399 46.83867399l-216.2007296 0L558.83722937 773.55663674z" fill="#f43f5e" p-id="1575"></path></svg>